{
    "asset" : {
        "generator" : "Khronos glTF Blender I/O v1.3.48",
        "version" : "2.0"
    },
    "scene" : 0,
    "scenes" : [
        {
            "name" : "Scene",
            "nodes" : [
                0,
                1,
                2,
                3,
                4
            ]
        }
    ],
    "nodes" : [
        {
            "mesh" : 0,
            "name" : "Car",
            "scale" : [
                2.5,
                1,
                5
            ],
            "translation" : [
                0,
                0.63808274269104,
                0
            ]
        },
        {
            "mesh" : 1,
            "name" : "LeftBack",
            "rotation" : [
                0,
                0,
                -0.7071068286895752,
                0.7071068286895752
            ],
            "scale" : [
                1,
                0.5,
                1
            ],
            "translation" : [
                3.3000009059906006,
                0.7999999523162842,
                -3.213416337966919
            ]
        },
        {
            "mesh" : 2,
            "name" : "RightFront",
            "rotation" : [
                0,
                0,
                -0.7071068286895752,
                0.7071068286895752
            ],
            "scale" : [
                1,
                0.5,
                1
            ],
            "translation" : [
                -3.3000009059906006,
                0.7999999523162842,
                2.999999761581421
            ]
        },
        {
            "mesh" : 3,
            "name" : "LeftFront",
            "rotation" : [
                0,
                0,
                -0.7071068286895752,
                0.7071068286895752
            ],
            "scale" : [
                1,
                0.5,
                1
            ],
            "translation" : [
                3.3000009059906006,
                0.7999999523162842,
                2.999999761581421
            ]
        },
        {
            "mesh" : 4,
            "name" : "RightBack",
            "rotation" : [
                0,
                0,
                -0.7071068286895752,
                0.7071068286895752
            ],
            "scale" : [
                1,
                0.5,
                1
            ],
            "translation" : [
                -3.3000009059906006,
                0.7999999523162842,
                -3.213416337966919
            ]
        }
    ],
    "materials" : [
        {
            "doubleSided" : true,
            "emissiveFactor" : [
                0,
                0,
                0
            ],
            "name" : "Car",
            "pbrMetallicRoughness" : {
                "baseColorFactor" : [
                    0.8000000715255737,
                    0.005647783167660236,
                    0,
                    1
                ],
                "metallicFactor" : 0,
                "roughnessFactor" : 0
            }
        },
        {
            "doubleSided" : true,
            "emissiveFactor" : [
                0,
                0,
                0
            ],
            "name" : "Paint",
            "pbrMetallicRoughness" : {
                "baseColorFactor" : [
                    0.0010390201350674033,
                    0,
                    0.8000000715255737,
                    1
                ],
                "metallicFactor" : 0,
                "roughnessFactor" : 0
            }
        },
        {
            "doubleSided" : true,
            "emissiveFactor" : [
                0,
                0,
                0
            ],
            "name" : "Tire",
            "pbrMetallicRoughness" : {
                "baseColorFactor" : [
                    0.0004134956398047507,
                    0.0004134956398047507,
                    0.0004134956398047507,
                    1
                ],
                "metallicFactor" : 0,
                "roughnessFactor" : 0.6417322754859924
            }
        }
    ],
    "meshes" : [
        {
            "name" : "Cube",
            "primitives" : [
                {
                    "attributes" : {
                        "POSITION" : 0,
                        "NORMAL" : 1,
                        "TEXCOORD_0" : 2
                    },
                    "indices" : 3,
                    "material" : 0
                },
                {
                    "attributes" : {
                        "POSITION" : 4,
                        "NORMAL" : 5,
                        "TEXCOORD_0" : 6
                    },
                    "indices" : 7,
                    "material" : 1
                }
            ]
        },
        {
            "name" : "Cylinder.004",
            "primitives" : [
                {
                    "attributes" : {
                        "POSITION" : 8,
                        "NORMAL" : 9,
                        "TEXCOORD_0" : 10
                    },
                    "indices" : 11,
                    "material" : 2
                }
            ]
        },
        {
            "name" : "Cylinder.002",
            "primitives" : [
                {
                    "attributes" : {
                        "POSITION" : 12,
                        "NORMAL" : 13,
                        "TEXCOORD_0" : 14
                    },
                    "indices" : 15,
                    "material" : 2
                }
            ]
        },
        {
            "name" : "Cylinder.005",
            "primitives" : [
                {
                    "attributes" : {
                        "POSITION" : 16,
                        "NORMAL" : 17,
                        "TEXCOORD_0" : 18
                    },
                    "indices" : 19,
                    "material" : 2
                }
            ]
        },
        {
            "name" : "Cylinder.006",
            "primitives" : [
                {
                    "attributes" : {
                        "POSITION" : 20,
                        "NORMAL" : 21,
                        "TEXCOORD_0" : 22
                    },
                    "indices" : 23,
                    "material" : 2
                }
            ]
        }
    ],
    "accessors" : [
        {
            "bufferView" : 0,
            "componentType" : 5126,
            "count" : 40,
            "max" : [
                1,
                2.7840988636016846,
                1
            ],
            "min" : [
                -1,
                0,
                -1
            ],
            "type" : "VEC3"
        },
        {
            "bufferView" : 1,
            "componentType" : 5126,
            "count" : 40,
            "type" : "VEC3"
        },
        {
            "bufferView" : 2,
            "componentType" : 5126,
            "count" : 40,
            "type" : "VEC2"
        },
        {
            "bufferView" : 3,
            "componentType" : 5123,
            "count" : 72,
            "type" : "SCALAR"
        },
        {
            "bufferView" : 4,
            "componentType" : 5126,
            "count" : 8,
            "max" : [
                1,
                2.7840988636016846,
                1
            ],
            "min" : [
                -1,
                1.36191725730896,
                -1
            ],
            "type" : "VEC3"
        },
        {
            "bufferView" : 5,
            "componentType" : 5126,
            "count" : 8,
            "type" : "VEC3"
        },
        {
            "bufferView" : 6,
            "componentType" : 5126,
            "count" : 8,
            "type" : "VEC2"
        },
        {
            "bufferView" : 7,
            "componentType" : 5123,
            "count" : 12,
            "type" : "SCALAR"
        },
        {
            "bufferView" : 8,
            "componentType" : 5126,
            "count" : 192,
            "max" : [
                0.9999999403953552,
                -1.9073486328125e-06,
                1.000000238418579
            ],
            "min" : [
                -1,
                -2.000001907348633,
                -0.9999997615814209
            ],
            "type" : "VEC3"
        },
        {
            "bufferView" : 9,
            "componentType" : 5126,
            "count" : 192,
            "type" : "VEC3"
        },
        {
            "bufferView" : 10,
            "componentType" : 5126,
            "count" : 192,
            "type" : "VEC2"
        },
        {
            "bufferView" : 11,
            "componentType" : 5123,
            "count" : 372,
            "type" : "SCALAR"
        },
        {
            "bufferView" : 12,
            "componentType" : 5126,
            "count" : 192,
            "max" : [
                0.9999999403953552,
                2.000001907348633,
                1.000000238418579
            ],
            "min" : [
                -1,
                1.9073486328125e-06,
                -0.9999997615814209
            ],
            "type" : "VEC3"
        },
        {
            "bufferView" : 13,
            "componentType" : 5126,
            "count" : 192,
            "type" : "VEC3"
        },
        {
            "bufferView" : 14,
            "componentType" : 5126,
            "count" : 192,
            "type" : "VEC2"
        },
        {
            "bufferView" : 15,
            "componentType" : 5123,
            "count" : 372,
            "type" : "SCALAR"
        },
        {
            "bufferView" : 16,
            "componentType" : 5126,
            "count" : 192,
            "max" : [
                0.9999999403953552,
                -1.9073486328125e-06,
                1.000000238418579
            ],
            "min" : [
                -1,
                -2.000001907348633,
                -0.9999997615814209
            ],
            "type" : "VEC3"
        },
        {
            "bufferView" : 17,
            "componentType" : 5126,
            "count" : 192,
            "type" : "VEC3"
        },
        {
            "bufferView" : 18,
            "componentType" : 5126,
            "count" : 192,
            "type" : "VEC2"
        },
        {
            "bufferView" : 19,
            "componentType" : 5123,
            "count" : 372,
            "type" : "SCALAR"
        },
        {
            "bufferView" : 20,
            "componentType" : 5126,
            "count" : 192,
            "max" : [
                0.9999999403953552,
                2.000001907348633,
                1.000000238418579
            ],
            "min" : [
                -1,
                1.9073486328125e-06,
                -0.9999997615814209
            ],
            "type" : "VEC3"
        },
        {
            "bufferView" : 21,
            "componentType" : 5126,
            "count" : 192,
            "type" : "VEC3"
        },
        {
            "bufferView" : 22,
            "componentType" : 5126,
            "count" : 192,
            "type" : "VEC2"
        },
        {
            "bufferView" : 23,
            "componentType" : 5123,
            "count" : 372,
            "type" : "SCALAR"
        }
    ],
    "bufferViews" : [
        {
            "buffer" : 0,
            "byteLength" : 480,
            "byteOffset" : 0
        },
        {
            "buffer" : 0,
            "byteLength" : 480,
            "byteOffset" : 480
        },
        {
            "buffer" : 0,
            "byteLength" : 320,
            "byteOffset" : 960
        },
        {
            "buffer" : 0,
            "byteLength" : 144,
            "byteOffset" : 1280
        },
        {
            "buffer" : 0,
            "byteLength" : 96,
            "byteOffset" : 1424
        },
        {
            "buffer" : 0,
            "byteLength" : 96,
            "byteOffset" : 1520
        },
        {
            "buffer" : 0,
            "byteLength" : 64,
            "byteOffset" : 1616
        },
        {
            "buffer" : 0,
            "byteLength" : 24,
            "byteOffset" : 1680
        },
        {
            "buffer" : 0,
            "byteLength" : 2304,
            "byteOffset" : 1704
        },
        {
            "buffer" : 0,
            "byteLength" : 2304,
            "byteOffset" : 4008
        },
        {
            "buffer" : 0,
            "byteLength" : 1536,
            "byteOffset" : 6312
        },
        {
            "buffer" : 0,
            "byteLength" : 744,
            "byteOffset" : 7848
        },
        {
            "buffer" : 0,
            "byteLength" : 2304,
            "byteOffset" : 8592
        },
        {
            "buffer" : 0,
            "byteLength" : 2304,
            "byteOffset" : 10896
        },
        {
            "buffer" : 0,
            "byteLength" : 1536,
            "byteOffset" : 13200
        },
        {
            "buffer" : 0,
            "byteLength" : 744,
            "byteOffset" : 14736
        },
        {
            "buffer" : 0,
            "byteLength" : 2304,
            "byteOffset" : 15480
        },
        {
            "buffer" : 0,
            "byteLength" : 2304,
            "byteOffset" : 17784
        },
        {
            "buffer" : 0,
            "byteLength" : 1536,
            "byteOffset" : 20088
        },
        {
            "buffer" : 0,
            "byteLength" : 744,
            "byteOffset" : 21624
        },
        {
            "buffer" : 0,
            "byteLength" : 2304,
            "byteOffset" : 22368
        },
        {
            "buffer" : 0,
            "byteLength" : 2304,
            "byteOffset" : 24672
        },
        {
            "buffer" : 0,
            "byteLength" : 1536,
            "byteOffset" : 26976
        },
        {
            "buffer" : 0,
            "byteLength" : 744,
            "byteOffset" : 28512
        }
    ],
    "buffers" : [
        {
            "byteLength" : 29256,
            "uri" : "car2.bin"
        }
    ]
}
